<?xml version="1.0" standalone="no"?>
<!DOCTYPE svg PUBLIC "-//W3C//DTD SVG 20010904//EN"
 "http://www.w3.org/TR/2001/REC-SVG-20010904/DTD/svg10.dtd">
<svg version="1.0" xmlns="http://www.w3.org/2000/svg"
 width="700.000000pt" height="700.000000pt" viewBox="0 0 700.000000 700.000000"
 preserveAspectRatio="xMidYMid meet">
<metadata>
Created by potrace 1.11, written by Peter Selinger 2001-2013
</metadata>
<g transform="translate(0.000000,700.000000) scale(0.100000,-0.100000)"
fill="#000000" stroke="none">
<path d="M3285 6994 c-203 -20 -276 -28 -375 -45 -610 -105 -1195 -376 -1665
-772 -95 -81 -310 -294 -394 -392 -468 -542 -742 -1176 -833 -1925 -17 -137
-17 -583 0 -720 69 -569 227 -1028 514 -1491 145 -236 311 -440 525 -649 204
-200 371 -332 592 -468 463 -287 922 -445 1491 -514 137 -17 583 -17 720 0
569 69 1028 227 1491 514 360 222 692 528 958 882 323 430 549 960 640 1501
38 223 46 327 46 585 0 258 -8 362 -46 585 -105 627 -382 1216 -800 1700 -84
98 -299 311 -394 392 -518 437 -1148 710 -1845 798 -117 15 -536 28 -625 19z
m-1373 -1344 c29 -22 460 -602 479 -643 11 -24 10 -30 -5 -45 -14 -14 -42 -18
-171 -20 l-155 -4 0 -1454 0 -1454 1434 0 1435 0 3 165 c3 139 6 167 20 181
14 14 22 15 41 7 27 -13 601 -435 634 -467 37 -36 39 -69 6 -104 -35 -39 -616
-468 -644 -477 -14 -5 -27 -1 -38 9 -13 14 -17 45 -19 181 l-3 165 -1553 0
-1552 0 -44 23 c-24 12 -53 35 -64 50 -21 28 -21 31 -24 1602 l-2 1573 -160 4
c-134 2 -162 6 -176 20 -15 15 -16 21 -6 44 19 39 461 632 485 649 29 20 49
19 79 -5z m2160 -1130 c50 -14 132 -90 153 -142 22 -53 23 -150 2 -199 -20
-49 -72 -106 -121 -132 l-41 -22 -764 -3 -763 -2 -52 23 c-101 47 -150 122
-151 232 0 81 19 128 73 183 76 76 27 72 872 72 483 0 768 -4 792 -10z m-420
-746 c54 -18 107 -66 133 -120 28 -58 26 -194 -3 -250 -31 -60 -94 -111 -154
-123 -31 -7 -240 -11 -567 -11 -418 0 -527 3 -565 14 -109 33 -166 118 -166
245 1 134 57 217 170 252 14 4 268 8 566 8 466 1 547 -1 586 -15z m917 -769
c85 -47 141 -134 141 -220 0 -97 -75 -197 -176 -234 -54 -21 -70 -21 -1014
-21 -954 0 -960 0 -1016 21 -100 38 -174 137 -174 235 0 74 51 164 116 205 82
50 43 48 1089 46 l980 -2 54 -30z"/>
</g>
</svg>
